<?xml version="1.0" encoding="utf-8"?>
<!-- Generator: Adobe Illustrator 16.0.0, SVG Export Plug-In . SVG Version: 6.00 Build 0)  -->
<!DOCTYPE svg PUBLIC "-//W3C//DTD SVG 1.1//EN" "http://www.w3.org/Graphics/SVG/1.1/DTD/svg11.dtd">
<svg version="1.1" id="Layer_1" xmlns="http://www.w3.org/2000/svg" xmlns:xlink="http://www.w3.org/1999/xlink" x="0px" y="0px"
	 width="2988.295px" height="850.113px" viewBox="0 0 2988.295 850.113" enable-background="new 0 0 2988.295 850.113"
	 xml:space="preserve">
<g>
	<g>
		<path fill="#1971AA" d="M79.127,40.57v775.307h775.294V40.57H79.127z M712.805,657.799H220.75V377.525H630.78V480.09H374.519
			h-51.21v23.94v1.753v49.464h51.21h338.287V657.799z M712.805,301.2H220.75V198.636h492.055V301.2z"/>
		<g>
			<g>
				<g>
					<path fill="#1971AA" d="M1330.767,466.394v25.381h-187.543V176.228h180.915v25.381h-151.685v110.523h109.809v25.394h-109.809
						v128.868H1330.767z"/>
					<path fill="#1971AA" d="M1361.485,386.38v-23.901h106.68v23.901H1361.485z"/>
				</g>
			</g>
			<g>
				<g>
					<path fill="#1971AA" d="M1140.848,686.192l7.777-3.207c2.615,6.881,5.959,11.97,10.028,15.255
						c4.077,3.298,9.075,4.946,15.009,4.946c6.095,0,11.009-1.727,14.735-5.167c3.726-3.44,5.589-7.972,5.589-13.593
						c0-4.492-1.221-8.18-3.661-11.088c-2.44-2.895-6.575-5.544-12.418-7.933c-3.181-1.272-7.4-2.791-12.646-4.583
						c-5.258-1.778-8.62-3.115-10.101-3.985c-4.66-2.7-7.972-5.583-9.932-8.634c-1.96-3.038-2.947-6.815-2.947-11.295
						c0-8.023,2.467-14.333,7.388-18.929c4.92-4.596,11.697-6.894,20.331-6.894c7.666,0,13.995,1.882,18.98,5.647
						c4.992,3.777,8.796,9.555,11.412,17.357l-7.582,2.415c-2.401-6.011-5.479-10.451-9.25-13.333
						c-3.771-2.87-8.42-4.311-13.957-4.311c-5.355,0-9.704,1.545-13.041,4.635c-3.33,3.103-4.998,7.128-4.998,12.1
						c0,3.752,1.077,6.907,3.232,9.478c2.162,2.57,5.505,4.661,10.036,6.271c1.739,0.649,4.271,1.545,7.582,2.688
						c9.503,3.22,15.618,5.765,18.37,7.647c4.401,2.869,7.589,6.023,9.568,9.438c1.986,3.427,2.979,7.465,2.979,12.126
						c0,8.451-2.668,15.189-8.004,20.201c-5.343,5.011-12.567,7.517-21.668,7.517c-8.192,0-14.943-2.012-20.234-6.023
						C1148.138,700.94,1143.945,694.683,1140.848,686.192z"/>
					<path fill="#1971AA" d="M1215.493,709.327v-5.751l47.647-83.142h-43.207v-7.777h54.19v6.206l-47.388,82.688h47.388v7.776
						H1215.493z"/>
					<path fill="#1971AA" d="M1314.837,709.327v-39.61l-29.601-57.06h9.478l24.375,46.336l24.777-46.336h9.478l-29.549,57.06v39.61
						H1314.837z"/>
					<path fill="#1971AA" d="M1397.915,612.657c10.893,0,19.13,1.986,24.706,5.973c5.583,3.985,8.367,9.905,8.367,17.747
						c0,5.142-1.077,9.348-3.239,12.619c-2.155,3.271-5.628,5.973-10.425,8.102v0.727c5.888,2.298,10.211,5.414,12.982,9.309
						c2.766,3.896,4.142,8.815,4.142,14.736c0,9.191-2.727,16.072-8.198,20.629c-5.473,4.544-13.717,6.829-24.739,6.829h-31.834
						v-96.67H1397.915z M1397.785,620.435h-19.149v34.248h21.694c6.887,0,12.184-1.48,15.891-4.44
						c3.7-2.973,5.557-7.192,5.557-12.684c0-5.79-1.967-10.101-5.888-12.905C1411.968,621.836,1405.931,620.435,1397.785,620.435z
						 M1399.096,662.329h-20.461v39.222h23.265c7.452,0,13.185-1.688,17.189-5.076c4.012-3.376,6.018-8.192,6.018-14.476
						c0-6.622-2.136-11.555-6.407-14.801S1407.892,662.329,1399.096,662.329z"/>
					<path fill="#1971AA" d="M1453.994,709.327v-96.67h8.951v52.217l43.207-52.217h11.373l-31.042,36.988l34.833,59.682h-10.062
						l-30.919-52.489l-17.391,20.331v32.158H1453.994z"/>
					<path fill="#1971AA" d="M1525.171,661.019c0-15.112,3.479-27.226,10.433-36.3c6.952-9.088,16.111-13.632,27.484-13.632
						s20.5,4.544,27.387,13.632c6.881,9.074,10.328,21.188,10.328,36.3c0,15.125-3.447,27.225-10.328,36.313
						c-6.887,9.088-16.014,13.632-27.387,13.632s-20.532-4.544-27.484-13.632C1528.651,688.243,1525.171,676.144,1525.171,661.019z
						 M1534.591,661.019c0,13.073,2.551,23.369,7.646,30.886c5.096,7.518,12.048,11.282,20.851,11.282
						c8.802,0,15.754-3.765,20.85-11.282c5.097-7.517,7.647-17.813,7.647-30.886c0-13.113-2.551-23.421-7.647-30.912
						c-5.096-7.491-12.048-11.243-20.85-11.243c-8.803,0-15.755,3.752-20.851,11.243S1534.591,647.905,1534.591,661.019z"/>
					<path fill="#1971AA" d="M1661.193,709.327v-96.67h8.958v96.67H1661.193z"/>
					<path fill="#1971AA" d="M1805.71,709.327l-22.875-81.896l-22.876,81.896h-6.537l-27.192-96.67h8.692l22.097,79.676
						l21.96-79.676h8.036l21.896,79.676l22.227-79.676h8.758l-27.453,96.67H1805.71z"/>
					<path fill="#1971AA" d="M1874.273,709.327v-39.61l-29.607-57.06h9.478l24.382,46.336l24.771-46.336h9.478l-29.543,57.06v39.61
						H1874.273z"/>
					<path fill="#1971AA" d="M1984.672,698.474c-3.227,4.271-7.037,7.465-11.438,9.581c-4.401,2.104-9.523,3.168-15.359,3.168
						c-11.982,0-21.116-4.284-27.387-12.853c-6.277-8.556-9.413-20.968-9.413-37.222c0-16.073,3.2-28.484,9.607-37.222
						s15.47-13.1,27.192-13.1c8.666,0,15.6,2.311,20.786,6.92c5.18,4.621,9.017,11.904,11.503,21.837l-8.433,1.766
						c-2.091-7.803-5.09-13.555-8.991-17.255c-3.895-3.699-8.899-5.557-14.995-5.557c-8.718,0-15.449,3.609-20.201,10.815
						c-4.751,7.218-7.121,17.436-7.121,30.691c0,14.294,2.402,25.069,7.219,32.353c4.816,7.271,11.97,10.919,21.474,10.919
						c7.146,0,12.898-2.064,17.254-6.18c4.355-4.116,6.537-9.556,6.537-16.307v-10.334h-24.051v-7.258h33.723v46.089h-7.906V698.474
						z"/>
					<path fill="#1971AA" d="M2010.099,661.019c0-15.112,3.473-27.226,10.425-36.3c6.946-9.088,16.112-13.632,27.485-13.632
						c11.372,0,20.499,4.544,27.387,13.632c6.881,9.074,10.321,21.188,10.321,36.3c0,15.125-3.44,27.225-10.321,36.313
						c-6.888,9.088-16.015,13.632-27.387,13.632c-11.373,0-20.539-4.544-27.485-13.632
						C2013.572,688.243,2010.099,676.144,2010.099,661.019z M2019.511,661.019c0,13.073,2.545,23.369,7.647,30.886
						c5.096,7.518,12.048,11.282,20.851,11.282c8.802,0,15.748-3.765,20.85-11.282c5.097-7.517,7.647-17.813,7.647-30.886
						c0-13.113-2.551-23.421-7.647-30.912c-5.102-7.491-12.048-11.243-20.85-11.243c-8.803,0-15.755,3.752-20.851,11.243
						C2022.056,637.598,2019.511,647.905,2019.511,661.019z"/>
					<path fill="#1971AA" d="M2105.717,709.327v-96.67h23.531c15.119,0,26.492,3.934,34.119,11.788
						c7.627,7.868,11.438,19.604,11.438,35.21c0,16.241-3.868,28.588-11.6,37.026c-7.738,8.427-19.053,12.646-33.957,12.646
						H2105.717z M2114.675,701.551h13.528c12.678,0,22.052-3.285,28.107-9.841c6.057-6.557,9.082-16.696,9.082-30.432
						c0-14.554-2.85-24.992-8.563-31.341c-5.706-6.336-15.118-9.503-28.237-9.503h-13.918V701.551z"/>
					<path fill="#1971AA" d="M2203.439,619.642v89.686h-8.692v-96.67h14.574l46.342,81.571v-81.571h8.691v96.67h-9.542
						L2203.439,619.642z"/>
					<path fill="#1971AA" d="M2291.482,709.327v-96.67h8.952v96.67H2291.482z"/>
					<path fill="#1971AA" d="M2384.815,701.551v7.776h-57.455v-96.67h55.43v7.777h-46.472v33.858h33.639v7.777h-33.639v39.48
						H2384.815z"/>
					<path fill="#1971AA" d="M2434.883,709.327v-5.751l47.647-83.142h-43.2v-7.777h54.184v6.206l-47.388,82.688h47.388v7.776
						H2434.883z"/>
					<path fill="#1971AA" d="M2555.084,709.327v-96.67h23.531c15.119,0,26.492,3.934,34.119,11.788
						c7.628,7.868,11.438,19.604,11.438,35.21c0,16.241-3.868,28.588-11.6,37.026c-7.738,8.427-19.053,12.646-33.957,12.646
						H2555.084z M2564.043,701.551h13.527c12.678,0,22.052-3.285,28.108-9.841c6.056-6.557,9.081-16.696,9.081-30.432
						c0-14.554-2.85-24.992-8.563-31.341c-5.705-6.336-15.118-9.503-28.237-9.503h-13.917V701.551z"/>
					<path fill="#1971AA" d="M2637.247,661.019c0-15.112,3.473-27.226,10.425-36.3c6.946-9.088,16.112-13.632,27.485-13.632
						s20.5,4.544,27.387,13.632c6.881,9.074,10.321,21.188,10.321,36.3c0,15.125-3.44,27.225-10.321,36.313
						c-6.887,9.088-16.014,13.632-27.387,13.632s-20.539-4.544-27.485-13.632C2640.719,688.243,2637.247,676.144,2637.247,661.019z
						 M2646.659,661.019c0,13.073,2.545,23.369,7.647,30.886c5.096,7.518,12.048,11.282,20.851,11.282
						c8.802,0,15.748-3.765,20.85-11.282c5.096-7.517,7.647-17.813,7.647-30.886c0-13.113-2.552-23.421-7.647-30.912
						c-5.102-7.491-12.048-11.243-20.85-11.243c-8.803,0-15.755,3.752-20.851,11.243
						C2649.204,637.598,2646.659,647.905,2646.659,661.019z"/>
					<path fill="#1971AA" d="M2732.872,709.327v-96.67h15.949l26.472,82.479l26.667-82.479h15.885v96.67h-8.303v-87.517h-1.961
						l-28.432,87.517h-7.582l-28.367-87.517h-2.025v87.517H2732.872z"/>
					<path fill="#1971AA" d="M2853.592,677.753c0,8.153,2.2,14.424,6.602,18.825s10.724,6.608,18.955,6.608
						c8.191,0,14.482-2.207,18.857-6.608c4.382-4.401,6.569-10.672,6.569-18.825v-65.096h8.958v65.096
						c0,10.724-2.94,18.929-8.828,24.642c-5.881,5.712-14.398,8.568-25.557,8.568c-11.152,0-19.695-2.856-25.622-8.568
						c-5.927-5.713-8.887-13.918-8.887-24.642v-65.096h8.952V677.753z"/>
				</g>
			</g>
		</g>
	</g>
	<g>
		<path d="M1561.569,388.964c0,26.536,7.167,46.972,21.5,61.305s34.91,21.499,61.727,21.499c26.68,0,47.147-7.166,61.408-21.499
			c14.262-14.333,21.396-34.769,21.396-61.305V176.967h29.159v211.997c0,34.91-9.581,61.655-28.737,80.246
			c-19.156,18.592-46.9,27.888-83.227,27.888s-64.142-9.296-83.44-27.888c-19.299-18.591-28.945-45.336-28.945-80.246V176.967
			h29.159V388.964z"/>
		<path d="M1817.843,416.422l25.329-10.425c8.518,22.421,19.403,38.987,32.678,49.698c13.262,10.724,29.549,16.072,48.848,16.072
			c19.864,0,35.865-5.608,47.998-16.813c12.133-11.217,18.202-25.966,18.202-44.271c0-14.618-3.974-26.641-11.919-36.079
			c-7.951-9.438-21.428-18.059-40.447-25.861c-10.36-4.116-24.084-9.088-41.182-14.904c-17.105-5.816-28.069-10.14-32.893-12.983
			c-15.183-8.802-25.965-18.163-32.353-28.095c-6.381-9.932-9.575-22.213-9.575-36.832c0-26.108,8.018-46.647,24.051-61.616
			c16.034-14.969,38.104-22.46,66.199-22.46c24.973,0,45.583,6.141,61.831,18.41c16.248,12.282,28.634,31.12,37.144,56.515
			l-24.687,7.88c-7.81-19.578-17.852-34.054-30.12-43.427c-12.275-9.361-27.427-14.047-45.446-14.047
			c-17.456,0-31.606,5.037-42.467,15.112c-10.854,10.088-16.28,23.201-16.28,39.377c0,12.217,3.512,22.499,10.535,30.873
			c7.023,8.373,17.916,15.177,32.671,20.435c5.674,2.129,13.911,5.037,24.693,8.725c30.932,10.503,50.873,18.799,59.812,24.9
			c14.334,9.361,24.727,19.617,31.186,30.757c6.452,11.139,9.685,24.304,9.685,39.48c0,27.537-8.691,49.465-26.075,65.784
			c-17.385,16.319-40.902,24.473-70.563,24.473c-26.68,0-48.633-6.53-65.874-19.578
			C1841.576,464.459,1827.917,444.102,1817.843,416.422z"/>
		<path d="M2086.262,491.774V356.182l-47.043,32.782v-27.459l47.043-32.354V176.967h29.16v134.307l60.24-42.778v27.874
			l-60.24,41.506v128.569h140.908v25.329H2086.262z"/>
		<path d="M2311.034,388.964c0,26.536,7.16,46.972,21.5,61.305c14.326,14.333,34.904,21.499,61.727,21.499
			c26.673,0,47.147-7.166,61.409-21.499c14.261-14.333,21.389-34.769,21.389-61.305V176.967h29.159v211.997
			c0,34.91-9.574,61.655-28.73,80.246c-19.156,18.592-46.9,27.888-83.227,27.888c-36.332,0-64.142-9.296-83.44-27.888
			c-19.299-18.591-28.952-45.336-28.952-80.246V176.967h29.166V388.964z"/>
		<path d="M2774.417,456.448c-10.503,13.904-22.915,24.291-37.248,31.172s-31.009,10.334-50.022,10.334
			c-39.026,0-68.751-13.943-89.186-41.83c-20.435-27.888-30.652-68.29-30.652-121.221c0-52.359,10.432-92.775,31.295-121.221
			c20.857-28.445,50.374-42.674,88.543-42.674c28.237,0,50.802,7.517,67.692,22.564c16.884,15.034,29.373,38.728,37.462,71.094
			l-27.459,5.738c-6.815-25.394-16.572-44.128-29.27-56.189c-12.704-12.061-28.984-18.098-48.848-18.098
			c-28.387,0-50.309,11.749-65.771,35.235c-15.47,23.485-23.207,56.8-23.207,99.929c0,46.543,7.842,81.675,23.524,105.368
			c15.677,23.693,38.981,35.547,69.919,35.547c23.271,0,42.006-6.712,56.196-20.123c14.19-13.398,21.285-31.107,21.285-53.1v-33.639
			h-78.332v-23.616h109.835v150.056h-25.758V456.448z"/>
		<path d="M2882.972,491.774V176.967h29.166v314.807H2882.972z"/>
	</g>
</g>
</svg>
